<svg xmlns="http://www.w3.org/2000/svg" width="21.23" height="23.486" viewBox="0 0 21.23 23.486">
  <path id="trash" d="M983.127,356.236A2.239,2.239,0,0,1,980.891,354l-1.568-16.22H976.98a.56.56,0,1,1,0-1.12h5.03v-1.67a2.243,2.243,0,0,1,2.24-2.24h5.58a2.243,2.243,0,0,1,2.24,2.24v1.669h-1.12v-1.67a1.122,1.122,0,0,0-1.121-1.12h-5.58a1.121,1.121,0,0,0-1.12,1.12v1.67h13.96a.56.56,0,1,1,0,1.12h-2.339L993.183,354a2.238,2.238,0,0,1-2.235,2.237ZM982.009,354a1.12,1.12,0,0,0,1.118,1.119h7.822A1.119,1.119,0,0,0,992.066,354l1.569-16.22H980.44Zm7.821-1.12a.56.56,0,0,1-.56-.56V340.58a.56.56,0,0,1,.56-.56h.56a.561.561,0,0,1,.561.56V352.32a.561.561,0,0,1-.561.56Zm-3.35-.56V340.58a.56.56,0,0,1,1.12,0V352.32a.56.56,0,0,1-1.12,0Zm-2.79.56a.56.56,0,0,1-.56-.56V340.58a.56.56,0,0,1,.56-.56h.56a.56.56,0,0,1,.56.56V352.32a.56.56,0,0,1-.56.56Z" transform="translate(-976.42 -332.75)" fill="#a8b0b9"/>
</svg>
