<svg xmlns="http://www.w3.org/2000/svg" width="41.018" height="36.981" viewBox="0 0 41.018 36.981">
  <path id="Shape_2" data-name="Shape 2" d="M1042.9,21.009a2.962,2.962,0,0,0-2.939,2.382h-.077l-9.649,10.741h4.825l6.674-7.42a3.034,3.034,0,0,0,1.166.263,3.071,3.071,0,0,0,1.173-.263l6.667,7.42h4.832l-9.656-10.741h-.077a2.949,2.949,0,0,0-2.939-2.382Zm-17.489,15.505a2.4,2.4,0,0,0-2.416,2.389V40.1a2.368,2.368,0,0,0,2.228,2.349l3.8,13.158c1.208,2.387,2.416,2.387,3.616,2.387h21.72c1.208,0,2.408,0,3.617-2.387l3.812-13.158a2.368,2.368,0,0,0,2.22-2.349V38.9a2.393,2.393,0,0,0-2.408-2.389Zm6.786,5.965h.6a3.1,3.1,0,0,1,2.94,2.237l1.7,7.422a1.826,1.826,0,0,1-1.92,2.271h-.608a3.126,3.126,0,0,1-2.939-2.271l-1.7-7.422a1.807,1.807,0,0,1,1.927-2.237Zm11.31,0a2.393,2.393,0,0,1,2.409,2.389v7.157a2.412,2.412,0,0,1-4.825,0V44.868a2.4,2.4,0,0,1,2.416-2.389Zm10.7,0h.608a1.8,1.8,0,0,1,1.92,2.237l-1.7,7.422a3.125,3.125,0,0,1-2.939,2.271h-.608a1.827,1.827,0,0,1-1.919-2.271l1.7-7.422a3.1,3.1,0,0,1,2.94-2.237Z" transform="translate(-1022.991 -21.009)" fill="#00a9d8"/>
</svg>
